<mxfile host="app.diagrams.net" agent="Mozilla/5.0 (Windows NT 10.0; Win64; x64) AppleWebKit/537.36 (KHTML, like Gecko) Chrome/129.0.0.0 Safari/537.36" version="24.7.17">
  <diagram name="Page-1" id="qr9uAOpcxaRp9-JSzNre">
    <mxGraphModel dx="2359" dy="785" grid="1" gridSize="10" guides="1" tooltips="1" connect="1" arrows="1" fold="1" page="1" pageScale="1" pageWidth="850" pageHeight="1100" math="0" shadow="0">
      <root>
        <mxCell id="0" />
        <mxCell id="1" parent="0" />
        <mxCell id="swGlROKa0ujA1ajaOENd-1" value="Actor" style="shape=umlActor;verticalLabelPosition=bottom;verticalAlign=top;html=1;outlineConnect=0;" vertex="1" parent="1">
          <mxGeometry x="-310" y="740" width="30" height="60" as="geometry" />
        </mxCell>
        <mxCell id="swGlROKa0ujA1ajaOENd-12" value="" style="rounded=0;orthogonalLoop=1;jettySize=auto;html=1;" edge="1" parent="1" source="swGlROKa0ujA1ajaOENd-2" target="swGlROKa0ujA1ajaOENd-11">
          <mxGeometry relative="1" as="geometry" />
        </mxCell>
        <mxCell id="swGlROKa0ujA1ajaOENd-2" value="Login" style="ellipse;whiteSpace=wrap;html=1;" vertex="1" parent="1">
          <mxGeometry x="-200" y="730" width="120" height="80" as="geometry" />
        </mxCell>
        <mxCell id="swGlROKa0ujA1ajaOENd-3" value="" style="endArrow=classic;html=1;rounded=0;" edge="1" parent="1" source="swGlROKa0ujA1ajaOENd-1" target="swGlROKa0ujA1ajaOENd-2">
          <mxGeometry width="50" height="50" relative="1" as="geometry">
            <mxPoint x="-280" y="770" as="sourcePoint" />
            <mxPoint x="-230" y="720" as="targetPoint" />
          </mxGeometry>
        </mxCell>
        <mxCell id="swGlROKa0ujA1ajaOENd-4" value="Register" style="ellipse;whiteSpace=wrap;html=1;" vertex="1" parent="1">
          <mxGeometry x="-200" y="970" width="120" height="80" as="geometry" />
        </mxCell>
        <mxCell id="swGlROKa0ujA1ajaOENd-5" value="" style="endArrow=classic;html=1;rounded=0;" edge="1" parent="1" source="swGlROKa0ujA1ajaOENd-4" target="swGlROKa0ujA1ajaOENd-2">
          <mxGeometry width="50" height="50" relative="1" as="geometry">
            <mxPoint x="-80" y="470" as="sourcePoint" />
            <mxPoint x="-40" y="430" as="targetPoint" />
            <Array as="points" />
          </mxGeometry>
        </mxCell>
        <mxCell id="swGlROKa0ujA1ajaOENd-6" value="" style="endArrow=classic;html=1;rounded=0;" edge="1" parent="1" source="swGlROKa0ujA1ajaOENd-1" target="swGlROKa0ujA1ajaOENd-4">
          <mxGeometry width="50" height="50" relative="1" as="geometry">
            <mxPoint x="-190" y="760" as="sourcePoint" />
            <mxPoint x="-140" y="710" as="targetPoint" />
          </mxGeometry>
        </mxCell>
        <mxCell id="swGlROKa0ujA1ajaOENd-7" value="password change" style="ellipse;whiteSpace=wrap;html=1;" vertex="1" parent="1">
          <mxGeometry x="-90" y="840" width="120" height="80" as="geometry" />
        </mxCell>
        <mxCell id="swGlROKa0ujA1ajaOENd-8" value="" style="endArrow=classic;html=1;rounded=0;" edge="1" parent="1" source="swGlROKa0ujA1ajaOENd-2" target="swGlROKa0ujA1ajaOENd-7">
          <mxGeometry width="50" height="50" relative="1" as="geometry">
            <mxPoint x="-10" y="780" as="sourcePoint" />
            <mxPoint x="40" y="730" as="targetPoint" />
          </mxGeometry>
        </mxCell>
        <mxCell id="swGlROKa0ujA1ajaOENd-14" value="" style="rounded=0;orthogonalLoop=1;jettySize=auto;html=1;" edge="1" parent="1" source="swGlROKa0ujA1ajaOENd-11" target="swGlROKa0ujA1ajaOENd-13">
          <mxGeometry relative="1" as="geometry" />
        </mxCell>
        <mxCell id="swGlROKa0ujA1ajaOENd-21" value="" style="rounded=0;orthogonalLoop=1;jettySize=auto;html=1;" edge="1" parent="1" source="swGlROKa0ujA1ajaOENd-11" target="swGlROKa0ujA1ajaOENd-20">
          <mxGeometry relative="1" as="geometry" />
        </mxCell>
        <mxCell id="swGlROKa0ujA1ajaOENd-23" value="" style="edgeStyle=orthogonalEdgeStyle;rounded=0;orthogonalLoop=1;jettySize=auto;html=1;" edge="1" parent="1" source="swGlROKa0ujA1ajaOENd-11" target="swGlROKa0ujA1ajaOENd-22">
          <mxGeometry relative="1" as="geometry" />
        </mxCell>
        <mxCell id="swGlROKa0ujA1ajaOENd-11" value="Default page (main menu entry)" style="ellipse;whiteSpace=wrap;html=1;" vertex="1" parent="1">
          <mxGeometry x="-40" y="660" width="120" height="80" as="geometry" />
        </mxCell>
        <mxCell id="swGlROKa0ujA1ajaOENd-13" value="Connect with a device" style="ellipse;whiteSpace=wrap;html=1;fillStyle=auto;" vertex="1" parent="1">
          <mxGeometry x="-210" y="520" width="120" height="80" as="geometry" />
        </mxCell>
        <mxCell id="swGlROKa0ujA1ajaOENd-15" value="1. scan the bar&lt;div&gt;2. Blue tooth connection&lt;/div&gt;&lt;div&gt;3. read device data&lt;/div&gt;" style="text;html=1;align=left;verticalAlign=middle;whiteSpace=wrap;rounded=0;" vertex="1" parent="1">
          <mxGeometry x="-270" y="600" width="150" height="30" as="geometry" />
        </mxCell>
        <mxCell id="swGlROKa0ujA1ajaOENd-19" value="" style="edgeStyle=orthogonalEdgeStyle;rounded=0;orthogonalLoop=1;jettySize=auto;html=1;" edge="1" parent="1" source="swGlROKa0ujA1ajaOENd-16" target="swGlROKa0ujA1ajaOENd-18">
          <mxGeometry relative="1" as="geometry" />
        </mxCell>
        <mxCell id="swGlROKa0ujA1ajaOENd-16" value="device display and edit" style="ellipse;whiteSpace=wrap;html=1;" vertex="1" parent="1">
          <mxGeometry x="-40" y="390" width="120" height="80" as="geometry" />
        </mxCell>
        <mxCell id="swGlROKa0ujA1ajaOENd-18" value="Save parameter or send CMD to device" style="ellipse;whiteSpace=wrap;html=1;" vertex="1" parent="1">
          <mxGeometry x="-40" y="180" width="120" height="80" as="geometry" />
        </mxCell>
        <mxCell id="swGlROKa0ujA1ajaOENd-20" value="config offline device" style="ellipse;whiteSpace=wrap;html=1;" vertex="1" parent="1">
          <mxGeometry x="130" y="510" width="120" height="80" as="geometry" />
        </mxCell>
        <mxCell id="swGlROKa0ujA1ajaOENd-22" value="Create a new device instance" style="ellipse;whiteSpace=wrap;html=1;" vertex="1" parent="1">
          <mxGeometry x="130" y="660" width="120" height="80" as="geometry" />
        </mxCell>
        <mxCell id="swGlROKa0ujA1ajaOENd-25" value="&lt;div&gt;1. name a project&lt;/div&gt;&lt;div&gt;2. name a device&lt;/div&gt;3. select device type&lt;div&gt;&lt;span style=&quot;background-color: initial;&quot;&gt;4. select MLFB&lt;/span&gt;&lt;div&gt;&lt;br&gt;&lt;/div&gt;&lt;/div&gt;" style="text;html=1;align=left;verticalAlign=middle;whiteSpace=wrap;rounded=0;" vertex="1" parent="1">
          <mxGeometry x="240" y="750" width="150" height="30" as="geometry" />
        </mxCell>
        <mxCell id="swGlROKa0ujA1ajaOENd-27" value="&lt;div&gt;1. select a project&lt;/div&gt;&lt;div&gt;2. select a device&lt;/div&gt;" style="text;html=1;align=left;verticalAlign=middle;whiteSpace=wrap;rounded=0;" vertex="1" parent="1">
          <mxGeometry x="230" y="580" width="150" height="30" as="geometry" />
        </mxCell>
        <mxCell id="swGlROKa0ujA1ajaOENd-28" value="" style="endArrow=classic;html=1;rounded=0;" edge="1" parent="1" source="swGlROKa0ujA1ajaOENd-20" target="swGlROKa0ujA1ajaOENd-16">
          <mxGeometry width="50" height="50" relative="1" as="geometry">
            <mxPoint x="140" y="460" as="sourcePoint" />
            <mxPoint x="190" y="410" as="targetPoint" />
          </mxGeometry>
        </mxCell>
        <mxCell id="swGlROKa0ujA1ajaOENd-32" value="" style="endArrow=classic;html=1;rounded=0;dashed=1;" edge="1" parent="1">
          <mxGeometry width="50" height="50" relative="1" as="geometry">
            <mxPoint x="-20" y="460" as="sourcePoint" />
            <mxPoint x="-111" y="530" as="targetPoint" />
          </mxGeometry>
        </mxCell>
        <mxCell id="swGlROKa0ujA1ajaOENd-33" value="&amp;lt;include&amp;gt;" style="edgeLabel;html=1;align=center;verticalAlign=middle;resizable=0;points=[];" vertex="1" connectable="0" parent="swGlROKa0ujA1ajaOENd-32">
          <mxGeometry x="-0.3556" y="3" relative="1" as="geometry">
            <mxPoint as="offset" />
          </mxGeometry>
        </mxCell>
        <mxCell id="swGlROKa0ujA1ajaOENd-34" value="" style="endArrow=classic;html=1;rounded=0;dashed=1;" edge="1" parent="1" source="swGlROKa0ujA1ajaOENd-18" target="swGlROKa0ujA1ajaOENd-13">
          <mxGeometry width="50" height="50" relative="1" as="geometry">
            <mxPoint x="-10" y="470" as="sourcePoint" />
            <mxPoint x="-101" y="540" as="targetPoint" />
          </mxGeometry>
        </mxCell>
        <mxCell id="swGlROKa0ujA1ajaOENd-35" value="&amp;lt;include&amp;gt;" style="edgeLabel;html=1;align=center;verticalAlign=middle;resizable=0;points=[];" vertex="1" connectable="0" parent="swGlROKa0ujA1ajaOENd-34">
          <mxGeometry x="-0.3556" y="3" relative="1" as="geometry">
            <mxPoint as="offset" />
          </mxGeometry>
        </mxCell>
        <mxCell id="swGlROKa0ujA1ajaOENd-36" value="" style="endArrow=classic;html=1;rounded=0;" edge="1" parent="1" source="swGlROKa0ujA1ajaOENd-22" target="swGlROKa0ujA1ajaOENd-20">
          <mxGeometry width="50" height="50" relative="1" as="geometry">
            <mxPoint x="400" y="650" as="sourcePoint" />
            <mxPoint x="450" y="600" as="targetPoint" />
          </mxGeometry>
        </mxCell>
        <mxCell id="swGlROKa0ujA1ajaOENd-37" value="Cloud sych" style="ellipse;whiteSpace=wrap;html=1;" vertex="1" parent="1">
          <mxGeometry x="130" y="830" width="120" height="80" as="geometry" />
        </mxCell>
        <mxCell id="swGlROKa0ujA1ajaOENd-38" value="" style="endArrow=classic;html=1;rounded=0;" edge="1" parent="1" source="swGlROKa0ujA1ajaOENd-11" target="swGlROKa0ujA1ajaOENd-37">
          <mxGeometry width="50" height="50" relative="1" as="geometry">
            <mxPoint x="240" y="920" as="sourcePoint" />
            <mxPoint x="290" y="870" as="targetPoint" />
          </mxGeometry>
        </mxCell>
        <mxCell id="swGlROKa0ujA1ajaOENd-39" value="&lt;div&gt;1. auto cloud connection during the startup&lt;/div&gt;&lt;div&gt;2. sych devices list&lt;/div&gt;&lt;div&gt;3. receive notification&amp;nbsp;&lt;/div&gt;" style="text;html=1;align=left;verticalAlign=middle;whiteSpace=wrap;rounded=0;" vertex="1" parent="1">
          <mxGeometry x="220" y="920" width="150" height="30" as="geometry" />
        </mxCell>
        <mxCell id="swGlROKa0ujA1ajaOENd-43" value="&lt;div&gt;1. view and modify parameter&lt;/div&gt;&lt;div&gt;2. view cached process data&lt;/div&gt;" style="text;html=1;align=left;verticalAlign=middle;whiteSpace=wrap;rounded=0;" vertex="1" parent="1">
          <mxGeometry x="80" y="415" width="170" height="30" as="geometry" />
        </mxCell>
      </root>
    </mxGraphModel>
  </diagram>
</mxfile>
